# xmcd
#
# Track frame offsets:
#	150
#	27579
#	48733
#	79661
#	113976
#	139657
#	155204
#	191305
#	211627
#	237229
#	252833
#
# Disc length: 4268 seconds
#
# Revision: 1
# Processed by: cddbd v1.5.2PL0 Copyright (c) Steve Scherf et al.
# Submitted via: audiograbber 1.83.01
#
DISCID=9410aa0b
DTITLE=Grateful Dead - 73-11-10 Winterland Arena, San Francisco CA
DYEAR=1900
DGENRE=
TTITLE0=Bertha
TTITLE1=Jack Straw
TTITLE2=Loser
TTITLE3=Looks Like Rain
TTITLE4=Deal
TTITLE5=Mexicali Blues
TTITLE6=Tennessee Jed
TTITLE7=El Paso
TTITLE8=Brokedown Palace
TTITLE9=BIODTL
TTITLE10=Weather Report Suite
EXTD=
EXTT0=
EXTT1=
EXTT2=
EXTT3=
EXTT4=
EXTT5=
EXTT6=
EXTT7=
EXTT8=
EXTT9=
EXTT10=
PLAYORDER=
